<?xml version="1.0" encoding="utf-8"?>
<svg id="visual" viewBox="0 0 960 558.043" width="960" height="540" version="1.1" xmlns="http://www.w3.org/2000/svg">
  <rect x="0" y="0" width="960" height="540" fill="#100c0c"/>
  <defs/>
  <defs/>
  <g transform="translate(960, 0)">
    <path d="M0 513C-40.3 496 -80.6 479.1 -126.6 472.3C-172.5 465.6 -224.2 469.2 -256.5 444.3C-288.8 419.4 -301.7 366 -331.6 331.6C-361.6 297.2 -408.7 281.8 -433 250C-457.3 218.2 -458.9 169.9 -468.5 125.5C-478 81.1 -495.5 40.6 -513 0L0 0Z" fill="#100c0c"/>
  </g>
  <g transform="translate(0, 540)">
    <path d="M0 -513C45.7 -511.6 91.3 -510.2 132.8 -495.5C174.2 -480.8 211.5 -452.9 246 -426.1C280.5 -399.3 312.4 -373.6 345.8 -345.8C379.1 -317.9 414 -287.8 433.9 -250.5C453.8 -213.2 458.7 -168.7 469.4 -125.8C480.1 -82.8 496.6 -41.4 513 0L0 0Z" fill="#100c0c"/>
  </g>
  <path d="M -0.573 111.329 L 22.227 104.629 C 45.127 98.029 90.727 84.629 136.427 84.629 C 182.127 84.629 227.727 98.029 273.427 102.629 C 319.127 107.329 364.727 103.329 410.627 98.629 C 456.427 94.029 502.427 88.629 548.227 89.129 C 594.127 89.629 639.727 96.029 685.427 97.829 C 731.127 99.629 776.727 97.029 822.427 95.029 C 868.127 93.029 913.727 91.629 936.627 91.029 L 959.427 90.329 L 959.427 -14.671 L 936.627 -14.671 C 913.727 -14.671 868.127 -14.671 822.427 -14.671 C 776.727 -14.671 731.127 -14.671 685.427 -14.671 C 639.727 -14.671 594.127 -14.671 548.227 -14.671 C 502.427 -14.671 456.427 -14.671 410.627 -14.671 C 364.727 -14.671 319.127 -14.671 273.427 -14.671 C 227.727 -14.671 182.127 -14.671 136.427 -14.671 C 90.727 -14.671 45.127 -14.671 22.227 -14.671 L -0.573 -14.671 L -0.573 111.329 Z" fill="#00ff77"/>
  <path d="M -0.573 49.329 L 22.227 52.329 C 45.127 55.329 90.727 61.329 136.427 68.329 C 182.127 75.329 227.727 83.329 273.427 85.629 C 319.127 88.029 364.727 84.629 410.627 77.829 C 456.427 71.029 502.427 60.629 548.227 62.529 C 594.127 64.329 639.727 78.329 685.427 79.529 C 731.127 80.629 776.727 69.029 822.427 65.529 C 868.127 62.029 913.727 66.629 936.627 69.029 L 959.427 71.329 L 959.427 -14.671 L 936.627 -14.671 C 913.727 -14.671 868.127 -14.671 822.427 -14.671 C 776.727 -14.671 731.127 -14.671 685.427 -14.671 C 639.727 -14.671 594.127 -14.671 548.227 -14.671 C 502.427 -14.671 456.427 -14.671 410.627 -14.671 C 364.727 -14.671 319.127 -14.671 273.427 -14.671 C 227.727 -14.671 182.127 -14.671 136.427 -14.671 C 90.727 -14.671 45.127 -14.671 22.227 -14.671 L -0.573 -14.671 L -0.573 49.329 Z" fill="#8cffa6"/>
  <path d="M -0.573 54.329 L 22.227 55.029 C 45.127 55.629 90.727 57.029 136.427 54.529 C 182.127 52.029 227.727 45.629 273.427 43.029 C 319.127 40.329 364.727 41.329 410.627 44.629 C 456.427 48.029 502.427 53.629 548.227 52.129 C 594.127 50.629 639.727 42.029 685.427 42.529 C 731.127 43.029 776.727 52.629 822.427 54.629 C 868.127 56.629 913.727 51.029 936.627 48.129 L 959.427 45.329 L 959.427 -14.671 L 936.627 -14.671 C 913.727 -14.671 868.127 -14.671 822.427 -14.671 C 776.727 -14.671 731.127 -14.671 685.427 -14.671 C 639.727 -14.671 594.127 -14.671 548.227 -14.671 C 502.427 -14.671 456.427 -14.671 410.627 -14.671 C 364.727 -14.671 319.127 -14.671 273.427 -14.671 C 227.727 -14.671 182.127 -14.671 136.427 -14.671 C 90.727 -14.671 45.127 -14.671 22.227 -14.671 L -0.573 -14.671 L -0.573 54.329 Z" fill="#caffd2"/>
  <path d="M -0.573 45.329 L 22.227 43.529 C 45.127 41.629 90.727 38.029 136.427 36.029 C 182.127 34.029 227.727 33.629 273.427 32.029 C 319.127 30.329 364.727 27.329 410.627 25.129 C 456.427 23.029 502.427 21.629 548.227 23.829 C 594.127 26.029 639.727 31.629 685.427 31.629 C 731.127 31.629 776.727 26.029 822.427 25.129 C 868.127 24.329 913.727 28.329 936.627 30.329 L 959.427 32.329 L 959.427 -14.671 L 936.627 -14.671 C 913.727 -14.671 868.127 -14.671 822.427 -14.671 C 776.727 -14.671 731.127 -14.671 685.427 -14.671 C 639.727 -14.671 594.127 -14.671 548.227 -14.671 C 502.427 -14.671 456.427 -14.671 410.627 -14.671 C 364.727 -14.671 319.127 -14.671 273.427 -14.671 C 227.727 -14.671 182.127 -14.671 136.427 -14.671 C 90.727 -14.671 45.127 -14.671 22.227 -14.671 L -0.573 -14.671 L -0.573 45.329 Z" fill="#e2ffe6"/>
  <path d="M -0.573 21.329 L 22.227 20.629 C 45.127 20.029 90.727 18.629 136.427 15.329 C 182.127 12.029 227.727 6.629 273.427 7.029 C 319.127 7.329 364.727 13.329 410.627 15.629 C 456.427 18.029 502.427 16.629 548.227 15.129 C 594.127 13.629 639.727 12.029 685.427 11.129 C 731.127 10.329 776.727 10.329 822.427 9.129 C 868.127 8.029 913.727 5.629 936.627 4.529 L 959.427 3.329 L 959.427 -14.671 L 936.627 -14.671 C 913.727 -14.671 868.127 -14.671 822.427 -14.671 C 776.727 -14.671 731.127 -14.671 685.427 -14.671 C 639.727 -14.671 594.127 -14.671 548.227 -14.671 C 502.427 -14.671 456.427 -14.671 410.627 -14.671 C 364.727 -14.671 319.127 -14.671 273.427 -14.671 C 227.727 -14.671 182.127 -14.671 136.427 -14.671 C 90.727 -14.671 45.127 -14.671 22.227 -14.671 L -0.573 -14.671 L -0.573 21.329 Z" fill="#e2ffe6"/>
  <path d="M -0.572 430.325 L 22.228 436.625 C 45.128 443.025 90.728 455.625 136.428 460.025 C 182.128 464.325 227.728 460.325 273.428 457.125 C 319.128 454.025 364.728 451.625 410.628 448.325 C 456.428 445.025 502.428 440.625 548.228 442.325 C 594.128 444.025 639.728 451.625 685.428 456.125 C 731.128 460.625 776.728 462.025 822.428 457.525 C 868.128 453.025 913.728 442.625 936.628 437.525 L 959.428 432.325 L 959.428 563.325 L 936.628 563.325 C 913.728 563.325 868.128 563.325 822.428 563.325 C 776.728 563.325 731.128 563.325 685.428 563.325 C 639.728 563.325 594.128 563.325 548.228 563.325 C 502.428 563.325 456.428 563.325 410.628 563.325 C 364.728 563.325 319.128 563.325 273.428 563.325 C 227.728 563.325 182.128 563.325 136.428 563.325 C 90.728 563.325 45.128 563.325 22.228 563.325 L -0.572 563.325 L -0.572 430.325 Z" fill="#00ff77"/>
  <path d="M -0.572 480.325 L 22.228 480.025 C 45.128 479.625 90.728 479.025 136.428 477.825 C 182.128 476.625 227.728 475.025 273.428 473.625 C 319.128 472.325 364.728 471.325 410.628 468.625 C 456.428 466.025 502.428 461.625 548.228 465.525 C 594.128 469.325 639.728 481.325 685.428 487.325 C 731.128 493.325 776.728 493.325 822.428 486.325 C 868.128 479.325 913.728 465.325 936.628 458.325 L 959.428 451.325 L 959.428 563.325 L 936.628 563.325 C 913.728 563.325 868.128 563.325 822.428 563.325 C 776.728 563.325 731.128 563.325 685.428 563.325 C 639.728 563.325 594.128 563.325 548.228 563.325 C 502.428 563.325 456.428 563.325 410.628 563.325 C 364.728 563.325 319.128 563.325 273.428 563.325 C 227.728 563.325 182.128 563.325 136.428 563.325 C 90.728 563.325 45.128 563.325 22.228 563.325 L -0.572 563.325 L -0.572 480.325 Z" fill="#8cffa6"/>
  <path d="M -0.572 493.325 L 22.228 492.525 C 45.128 491.625 90.728 490.025 136.428 488.025 C 182.128 486.025 227.728 483.625 273.428 486.325 C 319.128 489.025 364.728 496.625 410.628 497.325 C 456.428 498.025 502.428 491.625 548.228 493.125 C 594.128 494.625 639.728 504.025 685.428 505.025 C 731.128 506.025 776.728 498.625 822.428 495.825 C 868.128 493.025 913.728 494.625 936.628 495.525 L 959.428 496.325 L 959.428 563.325 L 936.628 563.325 C 913.728 563.325 868.128 563.325 822.428 563.325 C 776.728 563.325 731.128 563.325 685.428 563.325 C 639.728 563.325 594.128 563.325 548.228 563.325 C 502.428 563.325 456.428 563.325 410.628 563.325 C 364.728 563.325 319.128 563.325 273.428 563.325 C 227.728 563.325 182.128 563.325 136.428 563.325 C 90.728 563.325 45.128 563.325 22.228 563.325 L -0.572 563.325 L -0.572 493.325 Z" fill="#caffd2"/>
  <path d="M -0.572 503.325 L 22.228 505.125 C 45.128 507.025 90.728 510.625 136.428 511.625 C 182.128 512.625 227.728 511.025 273.428 512.325 C 319.128 513.625 364.728 518.025 410.628 516.625 C 456.428 515.325 502.428 508.325 548.228 509.325 C 594.128 510.325 639.728 519.325 685.428 521.625 C 731.128 524.025 776.728 519.625 822.428 518.625 C 868.128 517.625 913.728 520.025 936.628 521.125 L 959.428 522.325 L 959.428 563.325 L 936.628 563.325 C 913.728 563.325 868.128 563.325 822.428 563.325 C 776.728 563.325 731.128 563.325 685.428 563.325 C 639.728 563.325 594.128 563.325 548.228 563.325 C 502.428 563.325 456.428 563.325 410.628 563.325 C 364.728 563.325 319.128 563.325 273.428 563.325 C 227.728 563.325 182.128 563.325 136.428 563.325 C 90.728 563.325 45.128 563.325 22.228 563.325 L -0.572 563.325 L -0.572 503.325 Z" fill="#ffffff"/>
  <path d="M -0.572 523.325 L 22.228 525.625 C 45.128 528.025 90.728 532.625 136.428 533.625 C 182.128 534.625 227.728 532.025 273.428 532.325 C 319.128 532.625 364.728 536.025 410.628 537.525 C 456.428 539.025 502.428 538.625 548.228 535.825 C 594.128 533.025 639.728 527.625 685.428 525.325 C 731.128 523.025 776.728 523.625 822.428 525.025 C 868.128 526.325 913.728 528.325 936.628 529.325 L 959.428 530.325 L 959.428 563.325 L 936.628 563.325 C 913.728 563.325 868.128 563.325 822.428 563.325 C 776.728 563.325 731.128 563.325 685.428 563.325 C 639.728 563.325 594.128 563.325 548.228 563.325 C 502.428 563.325 456.428 563.325 410.628 563.325 C 364.728 563.325 319.128 563.325 273.428 563.325 C 227.728 563.325 182.128 563.325 136.428 563.325 C 90.728 563.325 45.128 563.325 22.228 563.325 L -0.572 563.325 L -0.572 523.325 Z" fill="#ffffff"/>
</svg>