<svg id="visual" viewBox="0 0 900 600" width="900" height="600" xmlns="http://www.w3.org/2000/svg" xmlns:xlink="http://www.w3.org/1999/xlink" version="1.1"><rect x="0" y="0" width="900" height="600" fill="#001220"></rect><path d="M0 483L21.5 487.3C43 491.7 86 500.3 128.8 497C171.7 493.7 214.3 478.3 257.2 470.7C300 463 343 463 385.8 464.2C428.7 465.3 471.3 467.7 514.2 470.3C557 473 600 476 642.8 480C685.7 484 728.3 489 771.2 486.8C814 484.7 857 475.3 878.5 470.7L900 466L900 601L878.5 601C857 601 814 601 771.2 601C728.3 601 685.7 601 642.8 601C600 601 557 601 514.2 601C471.3 601 428.7 601 385.8 601C343 601 300 601 257.2 601C214.3 601 171.7 601 128.8 601C86 601 43 601 21.5 601L0 601Z" fill="#f85c2c"></path><path d="M0 487L21.5 489.5C43 492 86 497 128.8 499.5C171.7 502 214.3 502 257.2 501.2C300 500.3 343 498.7 385.8 498.3C428.7 498 471.3 499 514.2 496.7C557 494.3 600 488.7 642.8 486.3C685.7 484 728.3 485 771.2 489.2C814 493.3 857 500.7 878.5 504.3L900 508L900 601L878.5 601C857 601 814 601 771.2 601C728.3 601 685.7 601 642.8 601C600 601 557 601 514.2 601C471.3 601 428.7 601 385.8 601C343 601 300 601 257.2 601C214.3 601 171.7 601 128.8 601C86 601 43 601 21.5 601L0 601Z" fill="#c73516"></path><path d="M0 538L21.5 535.2C43 532.3 86 526.7 128.8 521.8C171.7 517 214.3 513 257.2 513.3C300 513.7 343 518.3 385.8 521.8C428.7 525.3 471.3 527.7 514.2 527C557 526.3 600 522.7 642.8 518.8C685.7 515 728.3 511 771.2 514.8C814 518.7 857 530.3 878.5 536.2L900 542L900 601L878.5 601C857 601 814 601 771.2 601C728.3 601 685.7 601 642.8 601C600 601 557 601 514.2 601C471.3 601 428.7 601 385.8 601C343 601 300 601 257.2 601C214.3 601 171.7 601 128.8 601C86 601 43 601 21.5 601L0 601Z" fill="#980000"></path><path d="M0 540L21.5 540.3C43 540.7 86 541.3 128.8 544C171.7 546.7 214.3 551.3 257.2 553.7C300 556 343 556 385.8 554.2C428.7 552.3 471.3 548.7 514.2 548C557 547.3 600 549.7 642.8 547.5C685.7 545.3 728.3 538.7 771.2 536C814 533.3 857 534.7 878.5 535.3L900 536L900 601L878.5 601C857 601 814 601 771.2 601C728.3 601 685.7 601 642.8 601C600 601 557 601 514.2 601C471.3 601 428.7 601 385.8 601C343 601 300 601 257.2 601C214.3 601 171.7 601 128.8 601C86 601 43 601 21.5 601L0 601Z" fill="#6a0000"></path><path d="M0 558L21.5 559.7C43 561.3 86 564.7 128.8 568.5C171.7 572.3 214.3 576.7 257.2 577.5C300 578.3 343 575.7 385.8 575C428.7 574.3 471.3 575.7 514.2 577.3C557 579 600 581 642.8 581.8C685.7 582.7 728.3 582.3 771.2 581.5C814 580.7 857 579.3 878.5 578.7L900 578L900 601L878.5 601C857 601 814 601 771.2 601C728.3 601 685.7 601 642.8 601C600 601 557 601 514.2 601C471.3 601 428.7 601 385.8 601C343 601 300 601 257.2 601C214.3 601 171.7 601 128.8 601C86 601 43 601 21.5 601L0 601Z" fill="#000000"></path></svg>