<svg id="visual" viewBox="0 0 960 540" width="960" height="540" xmlns="http://www.w3.org/2000/svg" xmlns:xlink="http://www.w3.org/1999/xlink" version="1.1">
<path d="M0 97L22.8 98.8C45.7 100.7 91.3 104.3 137 104.7C182.7 105 228.3 102 274 103.5C319.7 105 365.3 111 411.2 112.7C457 114.3 503 111.7 548.8 105.8C594.7 100 640.3 91 686 93.8C731.7 96.7 777.3 111.3 823 115.7C868.7 120 914.3 114 937.2 111L960 108L960 0L937.2 0C914.3 0 868.7 0 823 0C777.3 0 731.7 0 686 0C640.3 0 594.7 0 548.8 0C503 0 457 0 411.2 0C365.3 0 319.7 0 274 0C228.3 0 182.7 0 137 0C91.3 0 45.7 0 22.8 0L0 0Z" fill="#3dff97"></path><path d="M0 76L22.8 74.8C45.7 73.7 91.3 71.3 137 76.5C182.7 81.7 228.3 94.3 274 94.5C319.7 94.7 365.3 82.3 411.2 79C457 75.7 503 81.3 548.8 85.8C594.7 90.3 640.3 93.7 686 92.2C731.7 90.7 777.3 84.3 823 80.8C868.7 77.3 914.3 76.7 937.2 76.3L960 76L960 0L937.2 0C914.3 0 868.7 0 823 0C777.3 0 731.7 0 686 0C640.3 0 594.7 0 548.8 0C503 0 457 0 411.2 0C365.3 0 319.7 0 274 0C228.3 0 182.7 0 137 0C91.3 0 45.7 0 22.8 0L0 0Z" fill="#26bd5c"></path><path d="M0 81L22.8 76C45.7 71 91.3 61 137 60.5C182.7 60 228.3 69 274 73.8C319.7 78.7 365.3 79.3 411.2 75.3C457 71.3 503 62.7 548.8 60.3C594.7 58 640.3 62 686 64.3C731.7 66.7 777.3 67.3 823 65C868.7 62.7 914.3 57.3 937.2 54.7L960 52L960 0L937.2 0C914.3 0 868.7 0 823 0C777.3 0 731.7 0 686 0C640.3 0 594.7 0 548.8 0C503 0 457 0 411.2 0C365.3 0 319.7 0 274 0C228.3 0 182.7 0 137 0C91.3 0 45.7 0 22.8 0L0 0Z" fill="#008026"></path><path d="M0 60L22.8 60.2C45.7 60.3 91.3 60.7 137 56C182.7 51.3 228.3 41.7 274 37.2C319.7 32.7 365.3 33.3 411.2 37.3C457 41.3 503 48.7 548.8 51.3C594.7 54 640.3 52 686 49.7C731.7 47.3 777.3 44.7 823 42C868.7 39.3 914.3 36.7 937.2 35.3L960 34L960 0L937.2 0C914.3 0 868.7 0 823 0C777.3 0 731.7 0 686 0C640.3 0 594.7 0 548.8 0C503 0 457 0 411.2 0C365.3 0 319.7 0 274 0C228.3 0 182.7 0 137 0C91.3 0 45.7 0 22.8 0L0 0Z" fill="#004500"></path><path d="M0 32L22.8 29.7C45.7 27.3 91.3 22.7 137 22.3C182.7 22 228.3 26 274 28.8C319.7 31.7 365.3 33.3 411.2 30.5C457 27.7 503 20.3 548.8 17.2C594.7 14 640.3 15 686 15.5C731.7 16 777.3 16 823 17.5C868.7 19 914.3 22 937.2 23.5L960 25L960 0L937.2 0C914.3 0 868.7 0 823 0C777.3 0 731.7 0 686 0C640.3 0 594.7 0 548.8 0C503 0 457 0 411.2 0C365.3 0 319.7 0 274 0C228.3 0 182.7 0 137 0C91.3 0 45.7 0 22.8 0L0 0Z" fill="#000000">
</path></svg>